<mxfile host="app.diagrams.net" agent="Mozilla/5.0 (Windows NT 10.0; Win64; x64; rv:139.0) Gecko/20100101 Firefox/139.0" version="27.1.6" pages="2">
  <diagram name="Page-1" id="iIab-Z3kXB2uHs883U-0">
    <mxGraphModel dx="1310" dy="785" grid="1" gridSize="10" guides="1" tooltips="1" connect="1" arrows="1" fold="1" page="1" pageScale="1" pageWidth="3300" pageHeight="4681" math="0" shadow="0">
      <root>
        <mxCell id="0" />
        <mxCell id="1" parent="0" />
        <mxCell id="KbZx7B69FW1pLlju62c9-3" style="edgeStyle=orthogonalEdgeStyle;rounded=0;orthogonalLoop=1;jettySize=auto;html=1;exitX=1;exitY=0.5;exitDx=0;exitDy=0;entryX=0;entryY=0.5;entryDx=0;entryDy=0;" parent="1" source="KbZx7B69FW1pLlju62c9-1" target="KbZx7B69FW1pLlju62c9-2" edge="1">
          <mxGeometry relative="1" as="geometry" />
        </mxCell>
        <mxCell id="KbZx7B69FW1pLlju62c9-1" value="data&#xa;Raw Patient Data" style="rectangle;fillColor=#fff2cc;strokeColor=#d6b656;" parent="1" name="data" vertex="1">
          <mxGeometry x="660" y="430" width="100" height="50" as="geometry" />
        </mxCell>
        <mxCell id="KbZx7B69FW1pLlju62c9-5" style="edgeStyle=orthogonalEdgeStyle;rounded=0;orthogonalLoop=1;jettySize=auto;html=1;exitX=1;exitY=0.5;exitDx=0;exitDy=0;entryX=0.5;entryY=0;entryDx=0;entryDy=0;" parent="1" source="KbZx7B69FW1pLlju62c9-2" target="KbZx7B69FW1pLlju62c9-4" edge="1">
          <mxGeometry relative="1" as="geometry" />
        </mxCell>
        <mxCell id="KbZx7B69FW1pLlju62c9-2" value="transform:embed" style="rounded=1;whiteSpace=wrap;html=1;arcSize=50;fillColor=#f8cecc;strokeColor=#b85450;" parent="1" name="transform" vertex="1">
          <mxGeometry x="840" y="430" width="100" height="50" as="geometry" />
        </mxCell>
        <mxCell id="KbZx7B69FW1pLlju62c9-7" style="edgeStyle=orthogonalEdgeStyle;rounded=0;orthogonalLoop=1;jettySize=auto;html=1;exitX=0.5;exitY=1;exitDx=0;exitDy=0;entryX=0.5;entryY=0;entryDx=0;entryDy=0;" parent="1" source="KbZx7B69FW1pLlju62c9-4" target="KbZx7B69FW1pLlju62c9-6" edge="1">
          <mxGeometry relative="1" as="geometry" />
        </mxCell>
        <mxCell id="KbZx7B69FW1pLlju62c9-4" value="data&#xa;Structured and&#xa;Preprocessed Data" style="rectangle;fillColor=#fff2cc;strokeColor=#d6b656;" parent="1" name="data" vertex="1">
          <mxGeometry x="960" y="530" width="100" height="50" as="geometry" />
        </mxCell>
        <mxCell id="KbZx7B69FW1pLlju62c9-9" style="edgeStyle=orthogonalEdgeStyle;rounded=0;orthogonalLoop=1;jettySize=auto;html=1;exitX=0.5;exitY=1;exitDx=0;exitDy=0;entryX=0.5;entryY=0;entryDx=0;entryDy=0;" parent="1" source="KbZx7B69FW1pLlju62c9-6" target="KbZx7B69FW1pLlju62c9-8" edge="1">
          <mxGeometry relative="1" as="geometry" />
        </mxCell>
        <mxCell id="KbZx7B69FW1pLlju62c9-6" value="transform" style="rounded=1;whiteSpace=wrap;html=1;arcSize=50;fillColor=#f8cecc;strokeColor=#b85450;" parent="1" name="transform" vertex="1">
          <mxGeometry x="960" y="650" width="100" height="50" as="geometry" />
        </mxCell>
        <mxCell id="KbZx7B69FW1pLlju62c9-11" style="edgeStyle=orthogonalEdgeStyle;rounded=0;orthogonalLoop=1;jettySize=auto;html=1;exitX=0.5;exitY=1;exitDx=0;exitDy=0;entryX=0.5;entryY=0;entryDx=0;entryDy=0;" parent="1" source="KbZx7B69FW1pLlju62c9-8" target="KbZx7B69FW1pLlju62c9-10" edge="1">
          <mxGeometry relative="1" as="geometry" />
        </mxCell>
        <mxCell id="KbZx7B69FW1pLlju62c9-8" value="data&#xa;Selected Features" style="rectangle;fillColor=#fff2cc;strokeColor=#d6b656;" parent="1" name="data" vertex="1">
          <mxGeometry x="960" y="770" width="100" height="50" as="geometry" />
        </mxCell>
        <mxCell id="KbZx7B69FW1pLlju62c9-13" style="edgeStyle=orthogonalEdgeStyle;rounded=0;orthogonalLoop=1;jettySize=auto;html=1;exitX=0.5;exitY=1;exitDx=0;exitDy=0;entryX=0;entryY=0.5;entryDx=0;entryDy=0;" parent="1" source="KbZx7B69FW1pLlju62c9-10" target="KbZx7B69FW1pLlju62c9-12" edge="1">
          <mxGeometry relative="1" as="geometry" />
        </mxCell>
        <mxCell id="KbZx7B69FW1pLlju62c9-10" value="generate:train" style="rounded=1;whiteSpace=wrap;html=1;arcSize=50;fillColor=#e1d5e7;strokeColor=#9673a6;" parent="1" name="generate:train" vertex="1">
          <mxGeometry x="960" y="890" width="100" height="50" as="geometry" />
        </mxCell>
        <mxCell id="KbZx7B69FW1pLlju62c9-26" style="edgeStyle=orthogonalEdgeStyle;rounded=0;orthogonalLoop=1;jettySize=auto;html=1;exitX=0.5;exitY=0;exitDx=0;exitDy=0;entryX=0;entryY=0.5;entryDx=0;entryDy=0;" parent="1" source="KbZx7B69FW1pLlju62c9-12" target="KbZx7B69FW1pLlju62c9-20" edge="1">
          <mxGeometry relative="1" as="geometry">
            <Array as="points">
              <mxPoint x="1160" y="990" />
              <mxPoint x="1160" y="815" />
            </Array>
          </mxGeometry>
        </mxCell>
        <mxCell id="KbZx7B69FW1pLlju62c9-12" value="model:hybrid&#xa;MLDP" style="shape=hexagon;perimeter=hexagonPerimeter2;fillColor=#b0e3e6;strokeColor=#0e8088;" parent="1" name="model" vertex="1">
          <mxGeometry x="1090" y="990" width="120" height="50" as="geometry" />
        </mxCell>
        <mxCell id="KbZx7B69FW1pLlju62c9-18" style="edgeStyle=orthogonalEdgeStyle;rounded=0;orthogonalLoop=1;jettySize=auto;html=1;exitX=1;exitY=0.5;exitDx=0;exitDy=0;entryX=0.5;entryY=1;entryDx=0;entryDy=0;" parent="1" source="KbZx7B69FW1pLlju62c9-14" target="KbZx7B69FW1pLlju62c9-17" edge="1">
          <mxGeometry relative="1" as="geometry" />
        </mxCell>
        <mxCell id="KbZx7B69FW1pLlju62c9-14" value="data&#xa;Patient Data" style="rectangle;fillColor=#fff2cc;strokeColor=#d6b656;" parent="1" name="data" vertex="1">
          <mxGeometry x="1290" y="1090" width="100" height="50" as="geometry" />
        </mxCell>
        <mxCell id="KbZx7B69FW1pLlju62c9-27" style="edgeStyle=orthogonalEdgeStyle;rounded=0;orthogonalLoop=1;jettySize=auto;html=1;exitX=0.5;exitY=0;exitDx=0;exitDy=0;entryX=1;entryY=0.5;entryDx=0;entryDy=0;" parent="1" source="KbZx7B69FW1pLlju62c9-16" target="KbZx7B69FW1pLlju62c9-20" edge="1">
          <mxGeometry relative="1" as="geometry" />
        </mxCell>
        <mxCell id="KbZx7B69FW1pLlju62c9-16" value="symbol&#xa;Risk Scores and&#xa;Recommendations" style="rectangle;fillColor=#dae8fc;strokeColor=#6c8ebf;" parent="1" name="symbol" vertex="1">
          <mxGeometry x="1300" y="890" width="100" height="50" as="geometry" />
        </mxCell>
        <mxCell id="KbZx7B69FW1pLlju62c9-19" style="edgeStyle=orthogonalEdgeStyle;rounded=0;orthogonalLoop=1;jettySize=auto;html=1;exitX=0.5;exitY=0;exitDx=0;exitDy=0;entryX=1;entryY=0.5;entryDx=0;entryDy=0;" parent="1" source="KbZx7B69FW1pLlju62c9-17" target="KbZx7B69FW1pLlju62c9-16" edge="1">
          <mxGeometry relative="1" as="geometry" />
        </mxCell>
        <mxCell id="KbZx7B69FW1pLlju62c9-17" value="infer:deduce" style="rounded=1;whiteSpace=wrap;html=1;arcSize=50;fillColor=#bac8d3;strokeColor=#23445d;" parent="1" name="infer:deduce" vertex="1">
          <mxGeometry x="1420" y="990" width="100" height="50" as="geometry" />
        </mxCell>
        <mxCell id="KbZx7B69FW1pLlju62c9-23" style="edgeStyle=orthogonalEdgeStyle;rounded=0;orthogonalLoop=1;jettySize=auto;html=1;exitX=0.5;exitY=0;exitDx=0;exitDy=0;entryX=0;entryY=0.5;entryDx=0;entryDy=0;" parent="1" source="KbZx7B69FW1pLlju62c9-20" target="KbZx7B69FW1pLlju62c9-22" edge="1">
          <mxGeometry relative="1" as="geometry" />
        </mxCell>
        <mxCell id="KbZx7B69FW1pLlju62c9-20" value="infer:deduce" style="rounded=1;whiteSpace=wrap;html=1;arcSize=50;fillColor=#bac8d3;strokeColor=#23445d;" parent="1" name="infer:deduce" vertex="1">
          <mxGeometry x="1180" y="790" width="100" height="50" as="geometry" />
        </mxCell>
        <mxCell id="KbZx7B69FW1pLlju62c9-22" value="symbol&#xa;Clinical Report" style="rectangle;fillColor=#dae8fc;strokeColor=#6c8ebf;" parent="1" name="symbol" vertex="1">
          <mxGeometry x="1290" y="690" width="100" height="50" as="geometry" />
        </mxCell>
        <mxCell id="KbZx7B69FW1pLlju62c9-28" value="&lt;div&gt;error&lt;/div&gt;&lt;div&gt;^&lt;/div&gt;&lt;div&gt;&amp;nbsp; |--&lt;/div&gt;" style="text;html=1;align=center;verticalAlign=middle;whiteSpace=wrap;rounded=0;dashed=1;fillColor=#f5f5f5;fontColor=#333333;strokeColor=#666666;strokeWidth=2;" parent="1" name="text" vertex="1">
          <mxGeometry x="1210" y="840" width="80" height="280" as="geometry" />
        </mxCell>
      </root>
    </mxGraphModel>
  </diagram>
  <diagram name="Copy of Page-1" id="Rn0PZTRpmrpjF0LHhVTx">
    <mxGraphModel dx="1429" dy="856" grid="1" gridSize="10" guides="1" tooltips="1" connect="1" arrows="1" fold="1" page="1" pageScale="1" pageWidth="3300" pageHeight="4681" math="0" shadow="0">
      <root>
        <mxCell id="pFb6AQByK-KYfKYCYN8B-0" />
        <mxCell id="pFb6AQByK-KYfKYCYN8B-1" parent="pFb6AQByK-KYfKYCYN8B-0" />
        <mxCell id="pFb6AQByK-KYfKYCYN8B-2" style="edgeStyle=orthogonalEdgeStyle;rounded=0;orthogonalLoop=1;jettySize=auto;html=1;exitX=1;exitY=0.5;exitDx=0;exitDy=0;entryX=0;entryY=0.5;entryDx=0;entryDy=0;" edge="1" parent="pFb6AQByK-KYfKYCYN8B-1" source="pFb6AQByK-KYfKYCYN8B-3" target="pFb6AQByK-KYfKYCYN8B-5">
          <mxGeometry relative="1" as="geometry" />
        </mxCell>
        <mxCell id="pFb6AQByK-KYfKYCYN8B-3" value="data&#xa;Raw Patient Data" style="rectangle;fillColor=#fff2cc;strokeColor=#d6b656;" name="data" vertex="1" parent="pFb6AQByK-KYfKYCYN8B-1">
          <mxGeometry x="660" y="430" width="100" height="50" as="geometry" />
        </mxCell>
        <mxCell id="pFb6AQByK-KYfKYCYN8B-4" style="edgeStyle=orthogonalEdgeStyle;rounded=0;orthogonalLoop=1;jettySize=auto;html=1;exitX=1;exitY=0.5;exitDx=0;exitDy=0;entryX=0.5;entryY=0;entryDx=0;entryDy=0;" edge="1" parent="pFb6AQByK-KYfKYCYN8B-1" source="pFb6AQByK-KYfKYCYN8B-5" target="pFb6AQByK-KYfKYCYN8B-7">
          <mxGeometry relative="1" as="geometry" />
        </mxCell>
        <mxCell id="pFb6AQByK-KYfKYCYN8B-5" value="transform:embed" style="rounded=1;whiteSpace=wrap;html=1;arcSize=50;fillColor=#f8cecc;strokeColor=#b85450;" name="transform" vertex="1" parent="pFb6AQByK-KYfKYCYN8B-1">
          <mxGeometry x="840" y="430" width="100" height="50" as="geometry" />
        </mxCell>
        <mxCell id="pFb6AQByK-KYfKYCYN8B-6" style="edgeStyle=orthogonalEdgeStyle;rounded=0;orthogonalLoop=1;jettySize=auto;html=1;exitX=0.5;exitY=1;exitDx=0;exitDy=0;entryX=0.5;entryY=0;entryDx=0;entryDy=0;" edge="1" parent="pFb6AQByK-KYfKYCYN8B-1" source="pFb6AQByK-KYfKYCYN8B-7" target="pFb6AQByK-KYfKYCYN8B-9">
          <mxGeometry relative="1" as="geometry" />
        </mxCell>
        <mxCell id="pFb6AQByK-KYfKYCYN8B-7" value="data&#xa;Structured and&#xa;Preprocessed Data" style="rectangle;fillColor=#fff2cc;strokeColor=#d6b656;" name="data" vertex="1" parent="pFb6AQByK-KYfKYCYN8B-1">
          <mxGeometry x="960" y="530" width="100" height="50" as="geometry" />
        </mxCell>
        <mxCell id="pFb6AQByK-KYfKYCYN8B-8" style="edgeStyle=orthogonalEdgeStyle;rounded=0;orthogonalLoop=1;jettySize=auto;html=1;exitX=0.5;exitY=1;exitDx=0;exitDy=0;entryX=0.5;entryY=0;entryDx=0;entryDy=0;" edge="1" parent="pFb6AQByK-KYfKYCYN8B-1" source="pFb6AQByK-KYfKYCYN8B-9" target="pFb6AQByK-KYfKYCYN8B-11">
          <mxGeometry relative="1" as="geometry" />
        </mxCell>
        <mxCell id="pFb6AQByK-KYfKYCYN8B-9" value="transform" style="rounded=1;whiteSpace=wrap;html=1;arcSize=50;fillColor=#f8cecc;strokeColor=#b85450;" name="transform" vertex="1" parent="pFb6AQByK-KYfKYCYN8B-1">
          <mxGeometry x="960" y="650" width="100" height="50" as="geometry" />
        </mxCell>
        <mxCell id="pFb6AQByK-KYfKYCYN8B-10" style="edgeStyle=orthogonalEdgeStyle;rounded=0;orthogonalLoop=1;jettySize=auto;html=1;exitX=0.5;exitY=1;exitDx=0;exitDy=0;entryX=0.5;entryY=0;entryDx=0;entryDy=0;" edge="1" parent="pFb6AQByK-KYfKYCYN8B-1" source="pFb6AQByK-KYfKYCYN8B-11" target="pFb6AQByK-KYfKYCYN8B-13">
          <mxGeometry relative="1" as="geometry" />
        </mxCell>
        <mxCell id="pFb6AQByK-KYfKYCYN8B-11" value="data&#xa;Selected Features" style="rectangle;fillColor=#fff2cc;strokeColor=#d6b656;" name="data" vertex="1" parent="pFb6AQByK-KYfKYCYN8B-1">
          <mxGeometry x="960" y="770" width="100" height="50" as="geometry" />
        </mxCell>
        <mxCell id="pFb6AQByK-KYfKYCYN8B-12" style="edgeStyle=orthogonalEdgeStyle;rounded=0;orthogonalLoop=1;jettySize=auto;html=1;exitX=0.5;exitY=1;exitDx=0;exitDy=0;entryX=0;entryY=0.5;entryDx=0;entryDy=0;" edge="1" parent="pFb6AQByK-KYfKYCYN8B-1" source="pFb6AQByK-KYfKYCYN8B-13" target="pFb6AQByK-KYfKYCYN8B-15">
          <mxGeometry relative="1" as="geometry" />
        </mxCell>
        <mxCell id="pFb6AQByK-KYfKYCYN8B-13" value="generate:train" style="rounded=1;whiteSpace=wrap;html=1;arcSize=50;fillColor=#e1d5e7;strokeColor=#9673a6;" name="generate:train" vertex="1" parent="pFb6AQByK-KYfKYCYN8B-1">
          <mxGeometry x="960" y="890" width="100" height="50" as="geometry" />
        </mxCell>
        <mxCell id="pFb6AQByK-KYfKYCYN8B-14" style="edgeStyle=orthogonalEdgeStyle;rounded=0;orthogonalLoop=1;jettySize=auto;html=1;exitX=0.5;exitY=0;exitDx=0;exitDy=0;entryX=0;entryY=0.5;entryDx=0;entryDy=0;" edge="1" parent="pFb6AQByK-KYfKYCYN8B-1" source="pFb6AQByK-KYfKYCYN8B-15" target="pFb6AQByK-KYfKYCYN8B-23">
          <mxGeometry relative="1" as="geometry">
            <Array as="points">
              <mxPoint x="1160" y="990" />
              <mxPoint x="1160" y="815" />
            </Array>
          </mxGeometry>
        </mxCell>
        <mxCell id="pFb6AQByK-KYfKYCYN8B-15" value="model:hybrid&#xa;MLDP" style="shape=hexagon;perimeter=hexagonPerimeter2;fillColor=#b0e3e6;strokeColor=#0e8088;" name="model" vertex="1" parent="pFb6AQByK-KYfKYCYN8B-1">
          <mxGeometry x="1090" y="990" width="120" height="50" as="geometry" />
        </mxCell>
        <mxCell id="pFb6AQByK-KYfKYCYN8B-16" style="edgeStyle=orthogonalEdgeStyle;rounded=0;orthogonalLoop=1;jettySize=auto;html=1;exitX=1;exitY=0.5;exitDx=0;exitDy=0;entryX=0.5;entryY=1;entryDx=0;entryDy=0;" edge="1" parent="pFb6AQByK-KYfKYCYN8B-1" source="pFb6AQByK-KYfKYCYN8B-17" target="pFb6AQByK-KYfKYCYN8B-21">
          <mxGeometry relative="1" as="geometry" />
        </mxCell>
        <mxCell id="wpXxSPln-H94_zauJxnj-0" style="edgeStyle=orthogonalEdgeStyle;rounded=0;orthogonalLoop=1;jettySize=auto;html=1;exitX=0;exitY=0.5;exitDx=0;exitDy=0;entryX=0.5;entryY=1;entryDx=0;entryDy=0;" edge="1" parent="pFb6AQByK-KYfKYCYN8B-1" source="pFb6AQByK-KYfKYCYN8B-17" target="pFb6AQByK-KYfKYCYN8B-23">
          <mxGeometry relative="1" as="geometry" />
        </mxCell>
        <mxCell id="pFb6AQByK-KYfKYCYN8B-17" value="data&#xa;Patient Data" style="rectangle;fillColor=#fff2cc;strokeColor=#d6b656;" name="data" vertex="1" parent="pFb6AQByK-KYfKYCYN8B-1">
          <mxGeometry x="1290" y="1090" width="100" height="50" as="geometry" />
        </mxCell>
        <mxCell id="pFb6AQByK-KYfKYCYN8B-18" style="edgeStyle=orthogonalEdgeStyle;rounded=0;orthogonalLoop=1;jettySize=auto;html=1;exitX=0.5;exitY=0;exitDx=0;exitDy=0;entryX=1;entryY=0.5;entryDx=0;entryDy=0;" edge="1" parent="pFb6AQByK-KYfKYCYN8B-1" source="pFb6AQByK-KYfKYCYN8B-19" target="pFb6AQByK-KYfKYCYN8B-23">
          <mxGeometry relative="1" as="geometry" />
        </mxCell>
        <mxCell id="pFb6AQByK-KYfKYCYN8B-19" value="symbol&#xa;Risk Scores and&#xa;Recommendations" style="rectangle;fillColor=#dae8fc;strokeColor=#6c8ebf;" name="symbol" vertex="1" parent="pFb6AQByK-KYfKYCYN8B-1">
          <mxGeometry x="1300" y="890" width="100" height="50" as="geometry" />
        </mxCell>
        <mxCell id="pFb6AQByK-KYfKYCYN8B-20" style="edgeStyle=orthogonalEdgeStyle;rounded=0;orthogonalLoop=1;jettySize=auto;html=1;exitX=0.5;exitY=0;exitDx=0;exitDy=0;entryX=1;entryY=0.5;entryDx=0;entryDy=0;" edge="1" parent="pFb6AQByK-KYfKYCYN8B-1" source="pFb6AQByK-KYfKYCYN8B-21" target="pFb6AQByK-KYfKYCYN8B-19">
          <mxGeometry relative="1" as="geometry" />
        </mxCell>
        <mxCell id="pFb6AQByK-KYfKYCYN8B-21" value="infer:deduce" style="rounded=1;whiteSpace=wrap;html=1;arcSize=50;fillColor=#bac8d3;strokeColor=#23445d;" name="infer:deduce" vertex="1" parent="pFb6AQByK-KYfKYCYN8B-1">
          <mxGeometry x="1420" y="990" width="100" height="50" as="geometry" />
        </mxCell>
        <mxCell id="pFb6AQByK-KYfKYCYN8B-22" style="edgeStyle=orthogonalEdgeStyle;rounded=0;orthogonalLoop=1;jettySize=auto;html=1;exitX=0.5;exitY=0;exitDx=0;exitDy=0;entryX=0;entryY=0.5;entryDx=0;entryDy=0;" edge="1" parent="pFb6AQByK-KYfKYCYN8B-1" source="pFb6AQByK-KYfKYCYN8B-23" target="pFb6AQByK-KYfKYCYN8B-24">
          <mxGeometry relative="1" as="geometry" />
        </mxCell>
        <mxCell id="pFb6AQByK-KYfKYCYN8B-23" value="infer:deduce" style="rounded=1;whiteSpace=wrap;html=1;arcSize=50;fillColor=#bac8d3;strokeColor=#23445d;" name="infer:deduce" vertex="1" parent="pFb6AQByK-KYfKYCYN8B-1">
          <mxGeometry x="1180" y="790" width="100" height="50" as="geometry" />
        </mxCell>
        <mxCell id="pFb6AQByK-KYfKYCYN8B-24" value="symbol&#xa;Clinical Report" style="rectangle;fillColor=#dae8fc;strokeColor=#6c8ebf;" name="symbol" vertex="1" parent="pFb6AQByK-KYfKYCYN8B-1">
          <mxGeometry x="1290" y="690" width="100" height="50" as="geometry" />
        </mxCell>
      </root>
    </mxGraphModel>
  </diagram>
</mxfile>
